#!OML:ASF H:\Dans Jumps\Project 1\Capture day 1\Session 1\subject.ASF
:FULLY-SPECIFIED
:DEGREES
179
root 0.600501 16.7867 -15.8877 17.6817 -2.04019 -1.97935
lowerback 15.5855 -0.036149 -0.275931
upperback 10.1189 -0.095337 1.51385
thorax 2.00453 -0.118126 1.75445
lowerneck -16.0375 0.693872 -1.38522
upperneck 20.9095 1.18321 0.540188
head 9.21339 0.495054 0.563529
rclavicle -4.52235e-015 3.26752e-015
rhumerus -18.8389 -7.57001 -81.7116
rradius 26.9139
rwrist 26.4965
rhand -18.4568 -26.4905
rfingers 7.12502
rthumb 7.82946 -56.3255
lclavicle -4.52235e-015 3.26752e-015
lhumerus -17.2262 -8.57742 88.5856
lradius 23.0411
lwrist 12.4576
lhand -27.5318 -3.67333
lfingers 7.12502
lthumb -0.933756 26.3044
rfemur -46.0505 -3.8745 20.9545
rtibia 45.1427
rfoot -15.0165 -6.17646
rtoes 8.56838
lfemur -45.5109 9.94501 -21.515
ltibia 44.7849
lfoot -14.4473 7.38426
ltoes 3.76574
180
root 0.602987 16.7542 -15.914 17.9062 -2.03907 -2.00419
lowerback 15.7967 -0.0245848 -0.301847
upperback 10.1723 -0.08319 1.51462
thorax 1.95159 -0.113577 1.76923
lowerneck -16.0653 0.698856 -1.35097
upperneck 20.7417 1.18785 0.511213
head 9.16071 0.49783 0.547622
rclavicle 1.07095e-014 -4.22417e-016
rhumerus -18.8208 -7.58003 -81.7173
rradius 26.9189
rwrist 26.4921
rhand -18.4654 -26.4823
rfingers 7.12502
rthumb 7.82112 -56.3177
lclavicle 1.07095e-014 -4.22417e-016
lhumerus -17.2872 -8.61158 88.6172
lradius 22.9887
lwrist 12.6155
lhand -27.5228 -3.65316
lfingers 7.12502
lthumb -0.924976 26.3246
rfemur -46.7301 -3.85095 21.0002
rtibia 45.7209
rfoot -15.1279 -6.23635
rtoes 8.45744
lfemur -46.2079 9.88392 -21.5395
ltibia 45.4071
lfoot -14.5669 7.50459
ltoes 3.70191
181
root 0.605415 16.7221 -15.9394 18.132 -2.02763 -2.01543
lowerback 15.9983 -0.0179623 -0.331866
upperback 10.2222 -0.0779948 1.51146
thorax 1.90032 -0.112494 1.78308
lowerneck -16.0751 0.703754 -1.32377
upperneck 20.5637 1.19215 0.489429
head 9.10124 0.500747 0.535174
rclavicle -4.31114e-015 3.93842e-015
rhumerus -18.8115 -7.58011 -81.7289
rradius 26.9344
rwrist 26.4761
rhand -18.469 -26.4922
rfingers 7.12502
rthumb 7.81772 -56.3277
lclavicle -4.31114e-015 3.93842e-015
lhumerus -17.3469 -8.66545 88.649
lradius 22.9339
lwrist 12.7648
lhand -27.4564 -3.54406
lfingers 7.12502
lthumb -0.860922 26.4339
rfemur -47.406 -3.84884 21.0371
rtibia 46.2951
rfoot -15.2394 -6.28923
rtoes 8.34724
lfemur -46.8952 9.80893 -21.5748
ltibia 46.0146
lfoot -14.6838 7.62299
ltoes 3.63517
182
root 0.607696 16.69 -15.964 18.3541 -2.00824 -2.02305
lowerback 16.1953 -0.0145357 -0.358503
upperback 10.2707 -0.0765973 1.5069
thorax 1.85023 -0.113065 1.79406
lowerneck -16.0694 0.708396 -1.2996
upperneck 20.3742 1.1959 0.470549
head 9.03502 0.503566 0.524027
rclavicle -1.41851e-014 -9.48576e-015
rhumerus -18.8083 -7.56778 -81.7467
rradius 26.9588
rwrist 26.4462
rhand -18.4786 -26.5106
rfingers 7.12502
rthumb 7.80845 -56.3464
lclavicle -1.41851e-014 -9.48576e-015
lhumerus -17.4039 -8.73837 88.6796
lradius 22.8788
lwrist 12.8936
lhand -27.351 -3.36123
lfingers 7.12502
lthumb -0.759082 26.6172
rfemur -48.072 -3.86015 21.0741
rtibia 46.8636
rfoot -15.3523 -6.33676
rtoes 8.23925
lfemur -47.5695 9.72608 -21.61
ltibia 46.6092
lfoot -14.7974 7.74065
ltoes 3.559
183
root 0.609966 16.6582 -15.9877 18.5649 -1.97667 -2.02827
lowerback 16.3945 -0.0166821 -0.377732
upperback 10.3195 -0.0815078 1.50227
thorax 1.79976 -0.116394 1.80171
lowerneck -16.0461 0.714056 -1.279
upperneck 20.1716 1.20143 0.452561
head 8.9612 0.507118 0.513848
rclavicle -1.1545e-014 1.75086e-014
rhumerus -18.8129 -7.53725 -81.7697
rradius 26.9937
rwrist 26.401
rhand -18.4839 -26.5445
rfingers 7.12502
rthumb 7.80326 -56.3805
lclavicle -1.1545e-014 1.75086e-014
lhumerus -17.4605 -8.81635 88.7093
lradius 22.8267
lwrist 12.9852
lhand -27.2043 -3.13543
lfingers 7.12502
lthumb -0.617395 26.8434
rfemur -48.7162 -3.8901 21.1132
rtibia 47.4254
rfoot -15.4711 -6.37987
rtoes 8.12023
lfemur -48.2214 9.63362 -21.6422
ltibia 47.1921
lfoot -14.9108 7.85651
ltoes 3.48098
184
root 0.612132 16.6263 -16.0106 18.7644 -1.9348 -2.03725
lowerback 16.5967 -0.0224021 -0.387173
upperback 10.3682 -0.0897787 1.50034
thorax 1.74796 -0.120999 1.80723
lowerneck -16.0053 0.719745 -1.26553
upperneck 19.9552 1.2076 0.438545
head 8.87957 0.510952 0.506129
rclavicle 8.12532e-015 4.8578e-015
rhumerus -18.8215 -7.49234 -81.7953
rradius 27.0337
rwrist 26.3396
rhand -18.4887 -26.5807
rfingers 7.12502
rthumb 7.79867 -56.4168
lclavicle 8.12532e-015 4.8578e-015
lhumerus -17.5191 -8.89652 88.7388
lradius 22.7851
lwrist 13.0397
lhand -27.0263 -2.86391
lfingers 7.12502
lthumb -0.445529 27.1154
rfemur -49.34 -3.92965 21.1589
rtibia 47.982
rfoot -15.5963 -6.42164
rtoes 7.99794
lfemur -48.8551 9.53654 -21.6653
ltibia 47.7675
lfoot -15.027 7.96914
ltoes 3.39876
185
root 0.614222 16.5942 -16.0328 18.9475 -1.88217 -2.04914
lowerback 16.8023 -0.0322187 -0.388539
upperback 10.4215 -0.102281 1.50316
thorax 1.69968 -0.127521 1.81388
lowerneck -15.9713 0.726658 -1.2567
upperneck 19.7411 1.21689 0.42379
head 8.80013 0.515796 0.499381
rclavicle 1.05729e-014 -2.82026e-015
rhumerus -18.8228 -7.44846 -81.8182
rradius 27.0647
rwrist 26.2849
rhand -18.4856 -26.598
rfingers 7.12502
rthumb 7.80168 -56.4341
lclavicle 1.05729e-014 -2.82026e-015
lhumerus -17.5738 -8.9678 88.7704
lradius 22.7523
lwrist 13.0677
lhand -26.8871 -2.67187
lfingers 7.12502
lthumb -0.311016 27.3076
rfemur -49.9388 -3.97856 21.2096
rtibia 48.5338
rfoot -15.7261 -6.46367
rtoes 7.86539
lfemur -49.4663 9.43995 -21.6818
ltibia 48.3377
lfoot -15.1467 8.07286
ltoes 3.32236
186
root 0.616247 16.5619 -16.0544 19.1177 -1.82449 -2.06789
lowerback 17.0082 -0.043383 -0.382559
upperback 10.4781 -0.115524 1.51204
thorax 1.65516 -0.134312 1.82297
lowerneck -15.9552 0.736836 -1.24295
upperneck 19.5421 1.23214 0.39807
head 8.72938 0.522514 0.489027
rclavicle 1.19271e-015 6.83322e-015
rhumerus -18.8194 -7.40042 -81.837
rradius 27.0911
rwrist 26.2296
rhand -18.4842 -26.583
rfingers 7.12502
rthumb 7.80302 -56.419
lclavicle 1.19271e-015 6.83322e-015
lhumerus -17.6259 -9.03639 88.8087
lradius 22.7265
lwrist 13.07
lhand -26.815 -2.57526
lfingers 7.12502
lthumb -0.241404 27.4043
rfemur -50.5186 -4.02974 21.2679
rtibia 49.0817
rfoot -15.857 -6.5047
rtoes 7.72206
lfemur -50.0615 9.35225 -21.6913
ltibia 48.9052
lfoot -15.2696 8.16809
ltoes 3.24076
